<?xml version="1.0" encoding="utf-8"?>
<!-- Generator: Adobe Illustrator 18.0.0, SVG Export Plug-In . SVG Version: 6.00 Build 0)  -->
<!DOCTYPE svg PUBLIC "-//W3C//DTD SVG 1.1//EN" "http://www.w3.org/Graphics/SVG/1.1/DTD/svg11.dtd">
<svg version="1.1" xmlns="http://www.w3.org/2000/svg" xmlns:xlink="http://www.w3.org/1999/xlink" x="0px" y="0px"
	 viewBox="0 0 230 30" enable-background="new 0 0 230 30" xml:space="preserve">
<g id="Layer_1">
	<g>
		<path fill="#0F0E12" d="M34.4,18.4c0,1.2-0.9,2.1-2.1,2.1H14.8c-1.2,0-2.1-0.9-2.1-2.1V6.8H10v11.7c0,2.6,2.1,4.6,4.6,4.6h17.8
			c2.6,0,4.6-2.1,4.6-4.6V6.8h-2.7V18.4z"/>
		<path fill="#0F0E12" d="M70.7,6.8H52.9c-2.6,0-4.6,2.1-4.6,4.6v11.7H51V11.7c0-1.2,0.9-2.1,2.1-2.1h17.4c1.2,0,2.1,0.9,2.1,2.1
			v11.5h2.7V11.5C75.3,8.9,73.3,6.8,70.7,6.8z"/>
		<rect x="86" y="6.9" fill="#0F0E12" width="2.7" height="16.3"/>
		<rect x="217.3" y="6.9" fill="#0F0E12" width="2.7" height="16.3"/>
		<polygon fill="#0F0E12" points="97.3,9.6 109.3,9.6 109.3,23.2 112,23.2 112,9.6 124.2,9.6 124.2,6.8 97.3,6.8 		"/>
		<g>
			<polygon fill="#0F0E12" points="133.6,20.5 157.9,20.5 157.9,23.2 130.9,23.2 130.9,13.6 158,13.6 158,16.4 133.6,16.4 			"/>
			<rect x="130.9" y="6.8" fill="#0F0E12" width="27.1" height="2.7"/>
		</g>
		<rect x="167.7" y="20.5" fill="#0F0E12" width="2.7" height="2.7"/>
		<g>
			<polygon fill="#0F0E12" points="192.5,6.9 178.3,23.2 181.9,23.2 193.8,9.6 205.7,23.2 209.4,23.2 195.1,6.9 			"/>
			<polygon fill="#24BAED" points="188.9,23.2 198.7,23.2 193.8,17.6 			"/>
		</g>
	</g>
</g>
<g id="Layer_2">
</g>
</svg>
